<svg width="24" height="6" viewBox="0 0 24 6" fill="none" xmlns="http://www.w3.org/2000/svg">
<path d="M2.66667 0.333252C1.2 0.333252 0 1.53325 0 2.99992C0 4.46659 1.2 5.66659 2.66667 5.66659C4.13333 5.66659 5.33333 4.46659 5.33333 2.99992C5.33333 1.53325 4.13333 0.333252 2.66667 0.333252ZM21.3333 0.333252C19.8667 0.333252 18.6667 1.53325 18.6667 2.99992C18.6667 4.46659 19.8667 5.66659 21.3333 5.66659C22.8 5.66659 24 4.46659 24 2.99992C24 1.53325 22.8 0.333252 21.3333 0.333252ZM12 0.333252C10.5333 0.333252 9.33333 1.53325 9.33333 2.99992C9.33333 4.46659 10.5333 5.66659 12 5.66659C13.4667 5.66659 14.6667 4.46659 14.6667 2.99992C14.6667 1.53325 13.4667 0.333252 12 0.333252Z" fill="#B9B9B9"/>
</svg>
